<svg xmlns="http://www.w3.org/2000/svg" viewBox="0 0 64 64">
  <rect width="64" height="64" rx="14" fill="#1E4E79"/>
  <path d="M32 14c-3.2 0-4.6 1.6-8 1.6-4.8 0-8.4 3.4-8.4 8.6 0 4.4 1.8 7 2.9 11.2 1.2 4.6 1.7 12.6 4.9 12.6 3.4 0 1.6-8.4 5-12.4.9-1.1 2.3-1.1 3.2 0 3.4 4 1.6 12.4 5 12.4 3.2 0 3.7-8 4.9-12.6 1.1-4.2 2.9-6.8 2.9-11.2 0-5.2-3.6-8.6-8.4-8.6-3.4 0-4.8-1.6-8-1.6z" fill="#FFFFFF"/>
  <path d="M24.5 20.5c-2.4.2-4.3 1.9-4.7 4.2" stroke="#5BC8BE" stroke-width="2.4" stroke-linecap="round" fill="none"/>
</svg>
